<svg xmlns="http://www.w3.org/2000/svg" viewBox="0 0 234.26 87.52"><defs><style>.cls-1{fill:#4b4b4b;}</style></defs><g id="Layer_2" data-name="Layer 2"><g id="Layer_1-2" data-name="Layer 1"><path class="cls-1" d="M42.17,2.54c-15.24,0-33,13.46-33,33.15,0,8.77,2.92,16,12.45,16,6.85,0,11.3-5.08,11.3-9.78,0-2.92-2.41-3.56-2.41-6a3.93,3.93,0,0,1,4.06-4.07c2.67,0,4.32,2.16,4.32,5.21,0,9.27-8.51,17-18,17C9.78,54.11,0,47,0,35.06,0,12.7,22.23,0,43.31,0,63.26,0,68,4.32,87.27,4.32A22.16,22.16,0,0,0,100.35.64a2.6,2.6,0,0,1,1.4-.51.71.71,0,0,1,.76.63,2.7,2.7,0,0,1-.76,1.65c-2,2.92-8.9,13-15.75,13-6.61,0-12.58-2.67-17.66-4.95-5.59,7.36-7.88,17.27-9.65,28.7,3.93,1.15,7.36,2.42,11.17,2.42a16.68,16.68,0,0,0,9.91-3.81l1.14,1.14C75.07,45.73,71,49.79,66.05,49.79c-3.81,0-5.71-1.65-8.51-3.55-1.52,9.4-3.68,18.8-8,26C43.06,83,32.64,87.52,24,87.52c-10.29,0-13.59-5.08-13.59-7.37a2.14,2.14,0,0,1,2-2.28,1.84,1.84,0,0,1,1.9,1.9c0,1.78,1.78,4.7,6.74,4.7C28.58,84.47,32,79.26,37,68.85c3.43-7,6.1-16,9.15-25.66a12.31,12.31,0,0,0-6,1.27l-.51-.89a19.1,19.1,0,0,1,7.62-4.32C51.32,27.06,56.4,15.37,64.4,8.51,58.05,5.59,51.44,2.54,42.17,2.54Z"/><path class="cls-1" d="M94.63,59.07C92.22,62.5,88,75.33,88,77.36c0,1.4-.63,1.78-1.78,1.78s-3.68-.38-6-.38-4.45,1-5,1a.55.55,0,0,1-.51-.51c0-.5,1.4-1.39,2.29-3.17C80.15,70.24,84,56.91,84,54.49c0-.5-.13-1.27-1-1.27-1.39,0-5,3.31-5,3.31l-.89-1.15C79,53.6,85.1,48,89.29,48c3.56,0,5.59,1.91,5.59,4.2a14.57,14.57,0,0,1-.38,3.68c2.67-3.81,7.37-7.88,10.42-7.88s5,1.91,5,4.2c0,2.79-1.78,5.71-5.21,5.71a3.44,3.44,0,0,1-3.55-3.43c0-.76-.26-1.14-.76-1.14C99.08,53.35,97.81,54.49,94.63,59.07Z"/><path class="cls-1" d="M142.56,74.18c4.35-2.77,9.44-14.51,9.44-14.51h1.3s-8,19.79-14.85,19.47c-3.81-.18-6.09-2.54-6.09-5.59a13.44,13.44,0,0,1,.5-3.94c-2,3.56-8,9.53-13.71,9.53-6.74,0-10.3-3.69-10.3-9.4,0-12.07,11.94-21.73,21-21.73,4.82,0,7.36,2.42,7.74,5.59.89-2.54,2.93-4.19,7.24-4.82a12.73,12.73,0,0,0,6.1-2.16l.76,1.52a12.06,12.06,0,0,0-5.08,5.46c-2,3.94-5.33,14.36-5.33,18.68C141.25,73.67,141.47,74.87,142.56,74.18Zm-9.44-8.63c1-2.42,2.54-7.5,2.54-9.53,0-3.05-1-5.72-4.57-5.72-6.23,0-10.93,10.67-10.93,18.29,0,4.7,1,6.61,3.3,6.61C126.38,75.2,130.83,70.24,133.12,65.55Z"/><path class="cls-1" d="M188.24,48c3.18,0,6,2,6,4.7,0,6.1-5.84,11.44-5.84,18.68,0,2.16,1.15,2.67,1.78,2.67,2.92,0,11.15-8.88,11.15-8.88l-.83,3.06s-9.43,10.9-16,10.9c-4.06,0-7.49-2-7.49-6.1,0-6.73,7.11-13.59,7.11-18.29,0-1.53-.63-2-1.52-2-2.29,0-6.86,2.67-11.18,7.63-2.67,3-6.1,15-6.1,17,0,1.4-.89,1.78-2.79,1.78-1.15,0-2.67-.38-5-.38s-4.32,1-4.82,1c-.26,0-.51-.25-.51-.76s1.52-1.27,2.28-3.05c2.93-6.35,6.74-18.29,6.74-21.47,0-1.27,0-1.62-.62-1.89-3.42-1.6-7.27,7.07-7.27,7.07H152c2.24-5.4,3.93-11.4,14.27-11.66,3-.07,5.46,1.53,5.46,4.07a25.57,25.57,0,0,1-1.14,6.48C175.67,52.84,183.42,48,188.24,48Z"/><path class="cls-1" d="M212.79,60.46c6.35-7.11,12.7-13,16.64-13a4.64,4.64,0,0,1,4.83,4.7c0,2.54-1.4,5.71-5.08,5.71a3.37,3.37,0,0,1-3.69-3.55c0-.77-.12-1.15-.63-1.15-1.78,0-5.85,3.56-7.37,5.47,0,0,3,7.11,6.35,13.08,1.53,2.79,3.43,5.33,7,6.22l.12,1.15h-7.24c-3.93,0-7.75-1.4-9-4.2l-3.93-8.63a68.23,68.23,0,0,0-2.54,11.18c0,1.39-.64,1.9-1.78,1.9s-3.81-.51-6-.51c-2.42,0-4.19,1-4.7,1a.47.47,0,0,1-.51-.51c0-.51,1.27-1.4,2.29-3.43,2-3.56,3-8.26,5.08-15.75,3.43-12.45,7.36-28.07,8.25-31a12.68,12.68,0,0,1,5.59-7.37,8.88,8.88,0,0,1-1.78.12,19.81,19.81,0,0,1-3.93-.63l1.14-1.52a12.94,12.94,0,0,0,3.68.5,31.93,31.93,0,0,0,12.83-2.92l.64,1.15a17.45,17.45,0,0,0-5.21,6.22C220.92,30.23,215.58,50.68,212.79,60.46Z"/></g></g>
</svg>