<?xml version="1.0" encoding="utf-8"?>
<svg viewBox="0 0 722.392 87.9" width="707.6px" height="87.9px" preserveAspectRatio="none" xmlns="http://www.w3.org/2000/svg" xmlns:bx="https://boxy-svg.com"><defs><style>.cls-1{fill:#4b4b4b;}</style><bx:export><bx:file format="svg"/></bx:export></defs><g id="Layer_2" data-name="Layer 2"><g id="Layer_1-2" data-name="Layer 1"><path class="cls-1" d="M42.17,2.92c-15.24,0-33,13.47-33,33.15,0,8.77,2.92,16,12.45,16,6.85,0,11.3-5.08,11.3-9.78,0-2.92-2.41-3.56-2.41-6a3.93,3.93,0,0,1,4.06-4.07c2.67,0,4.32,2.16,4.32,5.21,0,9.27-8.51,17-18,17C9.78,54.49,0,47.38,0,35.44,0,13.08,22.23.38,43.31.38,63.26.38,68,4.7,87.27,4.7A22.16,22.16,0,0,0,100.35,1a2.69,2.69,0,0,1,1.4-.51.71.71,0,0,1,.76.63,2.7,2.7,0,0,1-.76,1.65c-2,2.93-8.9,13-15.75,13-6.61,0-12.58-2.67-17.66-4.95-5.59,7.36-7.88,17.27-9.65,28.7,3.93,1.15,7.36,2.42,11.17,2.42a16.68,16.68,0,0,0,9.91-3.81l1.14,1.14C75.07,46.11,71,50.17,66.05,50.17c-3.81,0-5.71-1.65-8.51-3.55-1.52,9.4-3.68,18.8-8,26C43.06,83.33,32.64,87.9,24,87.9c-10.29,0-13.59-5.08-13.59-7.37a2.14,2.14,0,0,1,2-2.28,1.84,1.84,0,0,1,1.9,1.9c0,1.78,1.78,4.7,6.74,4.7C28.58,84.85,32,79.64,37,69.23c3.43-7,6.1-16,9.15-25.66a12.31,12.31,0,0,0-6,1.27L39.63,44a19.1,19.1,0,0,1,7.62-4.32C51.32,27.44,56.4,15.75,64.4,8.89,58.05,6,51.44,2.92,42.17,2.92Z"/><path class="cls-1" d="M94.63,59.45C92.22,62.88,88,75.71,88,77.74c0,1.4-.63,1.78-1.78,1.78s-3.68-.38-6-.38-4.45,1-5,1a.55.55,0,0,1-.51-.51c0-.5,1.4-1.39,2.29-3.17C80.15,70.63,84,57.29,84,54.87c0-.5-.13-1.27-1-1.27-1.39,0-5,3.31-5,3.31l-.89-1.15C79,54,85.1,48.4,89.29,48.4c3.56,0,5.59,1.9,5.59,4.19a14.57,14.57,0,0,1-.38,3.68c2.67-3.81,7.37-7.87,10.42-7.87s5,1.9,5,4.19c0,2.79-1.78,5.71-5.21,5.71a3.44,3.44,0,0,1-3.55-3.43c0-.76-.26-1.14-.76-1.14C99.08,53.73,97.81,54.87,94.63,59.45Z"/><path class="cls-1" d="M142.56,74.56c4.35-2.77,9.44-14.51,9.44-14.51h1.3s-8,19.79-14.85,19.47c-3.81-.18-6.09-2.54-6.09-5.59a13.44,13.44,0,0,1,.5-3.94c-2,3.56-8,9.53-13.71,9.53-6.74,0-10.3-3.69-10.3-9.4,0-12.07,11.94-21.72,21-21.72,4.82,0,7.36,2.41,7.74,5.58.89-2.54,2.93-4.19,7.24-4.82A12.73,12.73,0,0,0,150.9,47l.76,1.52A12.06,12.06,0,0,0,146.58,54c-2,3.94-5.33,14.36-5.33,18.68C141.25,74.06,141.47,75.25,142.56,74.56Zm-9.44-8.63c1-2.42,2.54-7.5,2.54-9.53,0-3-1-5.72-4.57-5.72-6.23,0-10.93,10.67-10.93,18.29,0,4.7,1,6.61,3.3,6.61C126.38,75.58,130.83,70.63,133.12,65.93Z"/><path class="cls-1" d="M188.24,48.4c3.18,0,6,2,6,4.7,0,6.09-5.84,11.43-5.84,18.67,0,2.16,1.15,2.67,1.78,2.67,2.92,0,11.15-8.88,11.15-8.88l-.83,3.06s-9.43,10.9-16,10.9c-4.06,0-7.49-2-7.49-6.1,0-6.73,7.11-13.59,7.11-18.29,0-1.53-.63-2-1.52-2-2.29,0-6.86,2.66-11.18,7.62-2.67,3.05-6.1,15-6.1,17,0,1.4-.89,1.78-2.79,1.78-1.15,0-2.67-.38-5-.38s-4.32,1-4.82,1c-.26,0-.51-.25-.51-.76s1.52-1.27,2.28-3c2.93-6.35,6.74-18.29,6.74-21.47,0-1.27,0-1.62-.62-1.89-3.42-1.6-7.27,7.07-7.27,7.07H152c2.24-5.4,3.93-11.4,14.27-11.65,3-.08,5.46,1.52,5.46,4.06a25.57,25.57,0,0,1-1.14,6.48C175.67,53.22,183.42,48.4,188.24,48.4Z"/><path class="cls-1" d="M212.79,60.84c6.35-7.11,12.7-13,16.64-13a4.64,4.64,0,0,1,4.83,4.7c0,2.54-1.4,5.71-5.08,5.71a3.37,3.37,0,0,1-3.69-3.55c0-.77-.12-1.15-.63-1.15-1.78,0-5.85,3.56-7.37,5.47,0,0,3,7.11,6.35,13.08,1.53,2.79,3.43,5.33,7,6.22l.12,1.15h-7.24c-3.93,0-7.75-1.4-9-4.19l-3.93-8.64a68.23,68.23,0,0,0-2.54,11.18c0,1.39-.64,1.9-1.78,1.9s-3.81-.51-6-.51c-2.42,0-4.19,1-4.7,1a.47.47,0,0,1-.51-.51c0-.51,1.27-1.4,2.29-3.43,2-3.56,3-8.26,5.08-15.75,3.43-12.45,7.36-28.07,8.25-31a12.68,12.68,0,0,1,5.59-7.37,8.21,8.21,0,0,1-1.78.13,20.23,20.23,0,0,1-3.93-.64l1.14-1.52a12.94,12.94,0,0,0,3.68.5,31.93,31.93,0,0,0,12.83-2.92l.64,1.15a17.45,17.45,0,0,0-5.21,6.22C220.92,30.61,215.58,51.06,212.79,60.84Z"/><path class="cls-1" d="M259.62,45H262c1.77-6.23,5.46-8.77,10.16-10,5.59-1.4,7-2.41,7-2.41L280,34a14.85,14.85,0,0,0-5.21,5.59A26.18,26.18,0,0,0,272.2,45h8.89L280,47.13h-8.39c-2.41,8.25-5.59,18.41-5.59,23,0,3.17,1,4.32,3.18,4.32,3.43,0,16.16-11.5,16.16-11.5l.89,1s-14.14,15.25-22.51,15.56c-4.95.18-8.77-3.31-8.77-7.37,0-5.21,3.31-14,6.61-25h-3Z"/><path class="cls-1" d="M299.5,22.23a8.12,8.12,0,0,1-1.77.13,20.43,20.43,0,0,1-3.94-.64l1.14-1.52a13.05,13.05,0,0,0,3.69.5,31.93,31.93,0,0,0,12.82-2.92l.64,1.15a19.31,19.31,0,0,0-5.21,6.22c-3.05,5.46-10.41,33.66-10.41,33.66,5.2-6,13.21-10.8,17.91-10.8,3.05,0,5.84,1.4,5.84,5,0,6.22-5.72,11.94-5.72,18.8,0,2.16,1.15,2.67,1.91,2.67,2.41,0,9.86-7.39,9.86-7.39l1,1s-8.38,11.45-16.72,11.45c-3.81,0-7.62-1.53-7.62-6.1,0-6.73,7-13.59,7-18.42,0-1.4-.51-1.9-1.4-1.9-1.9,0-6.48,2-11.68,8.38-3.3,3.94-5.59,14.61-5.59,16.39,0,1.39-.64,1.9-1.78,1.9s-3.81-.51-6-.51c-2.41,0-4.19,1-4.7,1a.47.47,0,0,1-.51-.51c0-.51,1.27-1.4,2.29-3.43,2-3.56,3.05-8.26,5.08-15.75,3.43-12.45,7.37-28.07,8.25-31A12.68,12.68,0,0,1,299.5,22.23Z"/><path class="cls-1" d="M347.14,48.4c5.08,0,8.89,2.15,8.89,5.71,0,6.61-7.37,11-13.72,11-1.27,0-2.54-.25-2.54-1.14a.6.6,0,0,1,.63-.64c4.83,0,8.9-6,8.9-11.3,0-1-.51-1.65-1.4-1.65-4.83,0-10.67,9.78-10.67,17.65,0,5.72,2.67,7.63,5.71,7.63,4.83,0,9.15-5.08,9.15-5.08l1,1s-6.35,7.88-15.75,7.88c-5.47,0-11.44-2.92-11.44-9.91C325.92,57.41,338.88,48.4,347.14,48.4Z"/><path class="cls-1" d="M429.06,3.81c-21.72,0-44.84,15.88-44.84,35.57,0,8.76,3.56,14.73,12.45,14.73,6.73,0,10.92-4.7,10.92-9.4,0-2.92-2.41-3.43-2.41-6.1a3.8,3.8,0,0,1,4.07-4.06c2.79,0,4.19,2,4.19,5.21,0,8.89-7.62,16.76-17.53,16.76-11.05,0-20.83-5.58-20.83-17.91,0-22.35,30.36-36.7,53.85-36.7A69.2,69.2,0,0,1,443.16,3.3,22.59,22.59,0,0,1,454.34,0C458,0,462,1,462,2.29a2.37,2.37,0,0,1-2.41,2.54c-1.78,0-2-2.92-5.21-2.92-1.65,0-3.56,1-5.72,2.66,11.56,3.69,21,11.56,21,21.85,0,17.53-19.56,26.42-29.85,26.42-3.3,0-5.59-.51-5.59-1.52,0-.64.38-1.15.89-1.15a13.47,13.47,0,0,0,2.42.38c7.62,0,18.41-8.38,18.41-24,0-8.26-2.66-14.86-9.9-18.8C432.62,22.48,434,54.62,423.22,72.66A30.69,30.69,0,0,1,397.31,87.9c-10.29,0-13.47-5.21-13.47-7.37a2.07,2.07,0,0,1,2-2.28,1.86,1.86,0,0,1,1.91,1.9c0,1.4,1.52,4.7,6.73,4.7,7.37,0,10.67-5.21,15.63-15.62,8.12-17,14.35-50.94,30.1-63.77A36.54,36.54,0,0,0,429.06,3.81Z"/><path class="cls-1" d="M478.34,22.23a8.21,8.21,0,0,1-1.78.13,20.43,20.43,0,0,1-3.94-.64l1.15-1.52a12.94,12.94,0,0,0,3.68.5,31.93,31.93,0,0,0,12.83-2.92l.63,1.15a17.49,17.49,0,0,0-5.2,6.22c-3.43,6.22-12.45,36.33-12.45,45.35,0,3.17,1.15,4.08,2.41,3.94,4.68-.53,8.21-12.2,8.21-12.2l1,1s-3.84,16.26-14.55,16.26a7.58,7.58,0,0,1-7.88-7.75c0-6.23,5.08-21.85,10.29-42.17A11.74,11.74,0,0,1,478.34,22.23Z"/><path class="cls-1" d="M509.33,74.18a9.82,9.82,0,0,1,.64-4.06c-4.7,5.21-10.42,9.4-15.37,9.4-3.69,0-7.24-1.78-7.24-6.48,0-5.59,6.86-13.21,6.86-18.17,0-.89-.4-1.12-1.15-1.27-5.14-1-8.18,9.66-8.18,9.66l-1-1c1.63-6,3.56-14.08,15.8-13.84,3.56.06,5.46,1.65,5.46,4.19,0,5.08-6.35,14-6.35,19.81a1.78,1.78,0,0,0,1.91,2c1.77,0,4.44-1.4,9.14-7,2-2.54,3.05-8.89,4.58-12.07a11,11,0,0,1,8.63-6.22c5.08-.64,6.61-2.16,6.61-2.16l.89,1.4A14,14,0,0,0,525.46,54c-2.41,4.83-5,14.25-5,18.69A1.32,1.32,0,0,0,521.65,74c3.39,0,7-10,7-10l1.45.2S526,78.21,515.81,79.52A5.53,5.53,0,0,1,509.33,74.18Z"/><path class="cls-1" d="M593.24,53.24c0,6.09-5.84,11.43-5.84,18.67,0,2.16,1.14,2.67,1.77,2.67,2.93,0,11.79-10,11.79-10l-.72,2.61s-7.7,12.28-16.78,12.42c-4.07.06-7.5-2-7.5-6.1,0-6.73,7.12-13.34,7.12-18.29,0-1.52-.64-2-1.53-2-1.65,0-5.59,1.52-10.67,7.75-2.54,3.17-5.72,14.86-5.72,16.89,0,1.4-1.52,1.78-2.66,1.78s-2.8-.38-4.83-.38a26,26,0,0,0-4.06.76c-.39,0-.64-.26-.64-.76s1.15-.77,1.91-2.67c2.79-6.86,5.59-17.66,5.59-21.34,0-1.65-.51-2.41-1.53-2.41s-4.06,1.39-8.89,7.62c-2.54,3.17-6,15.37-6,17.4,0,1.4-.89,1.78-2.8,1.78-1.14,0-2.66-.38-4.95-.38s-4.32,1-4.82,1c-.26,0-.51-.25-.51-.76s1.52-1.27,2.28-3C536.2,70.13,540,58.19,540,55c0-1.27-.38-1.6-1-1.66-6.09-.51-8.89,10.91-8.89,10.91l-1.45-.2c1.15-2.81,2.31-16.25,16.43-15.53,3,.15,5.47,1.52,5.47,4.06a18.2,18.2,0,0,1-1.15,5.85c4.32-5.59,9.91-9.91,14.74-9.91,4.19,0,6.48,2,6.48,4.82a29.06,29.06,0,0,1-1.27,6.48c5.08-6.73,12.83-11.3,17.91-11.3C590.7,48.54,593.24,50.57,593.24,53.24Z"/><path class="cls-1" d="M628.35,18.93a16.17,16.17,0,0,0-5.21,6.22c-2.79,5.34-6,16.64-9.4,29.22,3-3.31,9.27-6.23,12.83-6.23,4.57,0,9.27,3,9.27,9.91,0,10.54-8.64,21.47-18.8,21.47-6.09,0-9.4-3.43-10.54-6.23-5.59,6-10.16,6.23-12.58,6.23v-.89c4.7-2,6.23-11.56,9.78-24.26s5.47-20.71,6.48-24.77a11.74,11.74,0,0,1,5.59-7.37,8.21,8.21,0,0,1-1.78.13,20.23,20.23,0,0,1-3.93-.64l1.14-1.52a12.94,12.94,0,0,0,3.68.5,31.93,31.93,0,0,0,12.83-2.92ZM612,61c-.89,2.41-2.79,8.51-2.79,10.29,0,4.07,3.05,5.21,5.2,5.21,5.47,0,10.29-11.94,10.29-19.56,0-3.56-.89-5.08-2.79-5.08S614.12,54.87,612,61Z"/><path class="cls-1" d="M660.61,48.4c5.08,0,8.89,2.15,8.89,5.71,0,6.61-7.37,11-13.72,11-1.27,0-2.54-.25-2.54-1.14a.6.6,0,0,1,.63-.64c4.83,0,8.9-6,8.9-11.3,0-1-.51-1.65-1.4-1.65-4.83,0-10.67,9.78-10.67,17.65,0,5.72,2.67,7.63,5.71,7.63,9-2.35,14.39-11.94,14.39-11.94l1,1s-8.21,14.74-21,14.74c-5.47,0-11.44-2.92-11.44-9.91C639.39,57.41,652.35,48.4,660.61,48.4Z"/><path class="cls-1" d="M692.36,59.45c-2.41,3.43-6.61,16.26-6.61,18.29,0,1.4-.63,1.78-1.77,1.78s-3.69-.38-6-.38-4.45,1-5,1a.55.55,0,0,1-.51-.51c0-.5,1.4-1.39,2.29-3.17,3-5.84,6.86-19.18,6.86-21.6,0-.5-.13-1.27-1-1.27-1.39,0-8.85,11.18-8.85,11.18l-1-1c1.55-2.2,6.65-15.67,16.22-15.37,3.56.1,5.59,1.9,5.59,4.19a14.57,14.57,0,0,1-.38,3.68c2.67-3.81,7.37-7.87,10.42-7.87s5,1.9,5,4.19c0,2.79-1.78,5.71-5.2,5.71a3.44,3.44,0,0,1-3.56-3.43c0-.76-.26-1.14-.76-1.14C696.81,53.73,695.54,54.87,692.36,59.45Z"/></g></g><path class="cls-1" d="M 721.968 43.428 C 721.968 47.222 718.984 50.199 715.108 50.199 C 711.233 50.199 708.212 47.222 708.212 43.428 C 708.212 39.632 711.277 36.734 715.108 36.734 C 718.94 36.734 721.968 39.711 721.968 43.428 Z M 709.93 43.428 C 709.93 46.404 712.131 48.772 715.152 48.772 C 718.173 48.772 720.252 46.404 720.252 43.47 C 720.252 40.537 718.093 38.081 715.108 38.081 C 712.124 38.081 709.922 40.487 709.922 43.428 L 709.93 43.428 Z M 714.05 46.94 L 712.5 46.94 L 712.5 40.247 C 713.116 40.124 713.972 40.044 715.072 40.044 C 716.34 40.044 716.913 40.247 717.398 40.537 C 717.766 40.82 718.049 41.355 718.049 42.007 C 718.049 42.74 717.477 43.311 716.659 43.558 L 716.659 43.637 C 717.311 43.883 717.68 44.368 717.882 45.268 C 718.085 46.288 718.209 46.694 718.375 46.94 L 716.702 46.94 C 716.499 46.694 716.375 46.085 716.173 45.31 C 716.05 44.578 715.644 44.253 714.79 44.253 L 714.05 44.253 L 714.05 46.948 L 714.05 46.94 Z M 714.087 43.144 L 714.819 43.144 C 715.681 43.144 716.369 42.855 716.369 42.167 C 716.369 41.551 715.92 41.146 714.941 41.146 C 714.536 41.146 714.246 41.188 714.087 41.225 L 714.087 43.144 Z" style=""/></svg>