<svg xmlns="http://www.w3.org/2000/svg" viewBox="0 0 804.51 519.66"><defs><style>.cls-1{fill:#a21e21;}.cls-2{fill:#511c22;}.cls-3{fill:#fff;}</style></defs><g id="Layer_2" data-name="Layer 2"><g id="Layer_1-2" data-name="Layer 1"><circle class="cls-1" cx="404.38" cy="259.83" r="259.83"/><rect class="cls-1" y="178.36" width="804.51" height="162.76"/><path class="cls-2" d="M404.3,512.08A250.1,250.1,0,0,1,252.08,461a254.45,254.45,0,0,1-88.52-125.49H8.9V186.63H162.72A254.26,254.26,0,0,1,251,59.31a252.41,252.41,0,0,1,306.66,0,254.28,254.28,0,0,1,88.26,127.32H795.61V335.52H645.05A254.53,254.53,0,0,1,556.52,461,250.08,250.08,0,0,1,404.3,512.08ZM19.53,324.89H171.45l1.13,3.8A243.63,243.63,0,0,0,258.5,452.53a241.74,241.74,0,0,0,291.61,0A243.61,243.61,0,0,0,636,328.69l1.13-3.8H785V197.26H637.9l-1.1-3.86C607.39,90.14,511.78,18,404.3,18S201.21,90.14,171.81,193.4l-1.1,3.86H19.53Z"/><path class="cls-2" d="M554.29,197.05a160.93,160.93,0,0,0-295.37,0Z"/><path class="cls-2" d="M258.92,324.9a160.93,160.93,0,0,0,295.37,0Z"/><path class="cls-3" d="M90.63,218.8c-15.25,0-33,13.47-33,33.16,0,8.76,2.92,16,12.45,16,6.86,0,11.3-5.08,11.3-9.78,0-2.92-2.41-3.56-2.41-6A3.93,3.93,0,0,1,83,248.15c2.67,0,4.32,2.15,4.32,5.2,0,9.28-8.51,17-18,17-11.05,0-20.84-7.11-20.84-19.05,0-22.35,22.23-35.06,43.32-35.06,19.94,0,24.64,4.32,44,4.32a22.13,22.13,0,0,0,13.08-3.68,2.72,2.72,0,0,1,1.4-.51.71.71,0,0,1,.76.63,2.74,2.74,0,0,1-.76,1.66c-2,2.92-8.89,12.95-15.75,12.95-6.61,0-12.58-2.66-17.66-4.95-5.59,7.37-7.87,17.27-9.65,28.71,3.94,1.14,7.37,2.41,11.18,2.41a16.68,16.68,0,0,0,9.91-3.81l1.14,1.14c-5.84,6.86-9.91,10.93-14.86,10.93-3.81,0-5.72-1.66-8.51-3.56-1.53,9.4-3.69,18.8-8,26-6.47,10.67-16.89,15.24-25.53,15.24-10.29,0-13.59-5.08-13.59-7.37a2.14,2.14,0,0,1,2-2.28,1.85,1.85,0,0,1,1.91,1.9c0,1.78,1.78,4.7,6.73,4.7,7.5,0,10.92-5.21,15.88-15.62,3.43-7,6.1-16,9.14-25.66a12.33,12.33,0,0,0-6,1.27l-.5-.89a19,19,0,0,1,7.62-4.32c4.06-12.19,9.14-23.88,17.15-30.74C106.51,221.85,99.9,218.8,90.63,218.8Z"/><path class="cls-3" d="M143.08,275.33c-2.41,3.43-6.6,16.26-6.6,18.29,0,1.4-.64,1.78-1.78,1.78s-3.68-.38-6-.38-4.45,1-4.95,1a.54.54,0,0,1-.51-.51c0-.5,1.39-1.39,2.28-3.17,3-5.84,6.86-19.18,6.86-21.59,0-.51-.12-1.27-1-1.27-1.4,0-5,3.3-5,3.3l-.89-1.15c1.91-1.77,8-7.36,12.2-7.36,3.56,0,5.59,1.9,5.59,4.19a15.09,15.09,0,0,1-.38,3.68c2.66-3.81,7.36-7.87,10.41-7.87s5,1.9,5,4.19c0,2.79-1.78,5.72-5.21,5.72a3.44,3.44,0,0,1-3.56-3.43c0-.77-.25-1.15-.76-1.15C147.53,269.61,146.26,270.76,143.08,275.33Z"/><path class="cls-3" d="M191,290.44c4.35-2.77,9.44-14.51,9.44-14.51h1.3s-8,19.79-14.84,19.47c-3.81-.18-6.1-2.54-6.1-5.59a13.48,13.48,0,0,1,.51-3.94c-2,3.56-8,9.53-13.72,9.53-6.73,0-10.29-3.69-10.29-9.4,0-12.07,11.94-21.72,21-21.72,4.82,0,7.37,2.41,7.75,5.59.89-2.54,2.92-4.2,7.24-4.83a12.71,12.71,0,0,0,6.09-2.16l.77,1.52a12.06,12.06,0,0,0-5.08,5.47c-2,3.93-5.34,14.35-5.34,18.67C189.7,289.94,189.93,291.13,191,290.44Zm-9.44-8.63c1-2.42,2.54-7.5,2.54-9.53,0-3-1-5.72-4.57-5.72-6.22,0-10.93,10.67-10.93,18.3,0,4.69,1,6.6,3.31,6.6C174.84,291.46,179.28,286.51,181.57,281.81Z"/><path class="cls-3" d="M236.7,264.28c3.18,0,6,2,6,4.7,0,6.09-5.84,11.43-5.84,18.67,0,2.16,1.14,2.67,1.77,2.67,2.92,0,11.16-8.88,11.16-8.88l-.84,3.06s-9.43,10.9-16,10.9c-4.07,0-7.5-2-7.5-6.1,0-6.73,7.12-13.59,7.12-18.29,0-1.52-.64-2-1.53-2-2.28,0-6.86,2.66-11.18,7.62-2.66,3-6.09,15-6.09,17,0,1.4-.89,1.78-2.8,1.78-1.14,0-2.66-.38-4.95-.38s-4.32,1-4.83,1c-.25,0-.51-.25-.51-.76s1.53-1.27,2.29-3c2.92-6.35,6.73-18.29,6.73-21.46,0-1.27,0-1.63-.61-1.9-3.42-1.6-7.28,7.07-7.28,7.07h-1.3c2.25-5.39,3.94-11.4,14.27-11.65,3.05-.08,5.47,1.52,5.47,4.06a25.38,25.38,0,0,1-1.15,6.48C224.12,269.1,231.87,264.28,236.7,264.28Z"/><path class="cls-3" d="M261.24,276.73c6.36-7.12,12.71-13,16.64-13a4.63,4.63,0,0,1,4.83,4.7c0,2.54-1.4,5.72-5.08,5.72a3.37,3.37,0,0,1-3.68-3.56c0-.76-.13-1.14-.64-1.14-1.78,0-5.84,3.55-7.37,5.46,0,0,3.05,7.11,6.35,13.08,1.53,2.8,3.44,5.34,7,6.22l.13,1.15h-7.24c-3.94,0-7.75-1.4-9-4.19l-3.94-8.64a69.38,69.38,0,0,0-2.54,11.18c0,1.39-.63,1.9-1.78,1.9s-3.81-.51-6-.51c-2.41,0-4.19,1-4.7,1a.47.47,0,0,1-.51-.51c0-.51,1.27-1.4,2.29-3.43,2-3.55,3.05-8.25,5.08-15.75,3.43-12.45,7.37-28.07,8.26-31a12.64,12.64,0,0,1,5.59-7.37,8.21,8.21,0,0,1-1.78.13,20.43,20.43,0,0,1-3.94-.64l1.14-1.52a12.82,12.82,0,0,0,3.69.51,32.14,32.14,0,0,0,12.83-2.92l.63,1.14a17.69,17.69,0,0,0-5.21,6.22C269.37,246.49,264,266.94,261.24,276.73Z"/><path class="cls-3" d="M308.08,260.85h2.41c1.78-6.23,5.46-8.77,10.16-10,5.59-1.39,7-2.41,7-2.41l.76,1.52a14.85,14.85,0,0,0-5.21,5.59,26.18,26.18,0,0,0-2.54,5.34h8.89L328.4,263H320c-2.42,8.25-5.59,18.42-5.59,23,0,3.17,1,4.32,3.17,4.32,3.43,0,16.17-11.5,16.17-11.5l.89,1s-14.15,15.25-22.52,15.56c-4.95.18-8.76-3.3-8.76-7.37,0-5.21,3.3-14,6.6-25h-3.05Z"/><path class="cls-3" d="M348,238.11a8.21,8.21,0,0,1-1.78.13,20.43,20.43,0,0,1-3.94-.64l1.15-1.52a12.7,12.7,0,0,0,3.68.51,32.14,32.14,0,0,0,12.83-2.92l.63,1.14a19.22,19.22,0,0,0-5.2,6.22c-3.05,5.46-10.42,33.66-10.42,33.66,5.21-6,13.21-10.79,17.91-10.79,3.05,0,5.84,1.39,5.84,5,0,6.22-5.71,11.94-5.71,18.8,0,2.16,1.14,2.67,1.9,2.67,2.42,0,9.86-7.39,9.86-7.39l1,1S367.35,295.4,359,295.4c-3.81,0-7.62-1.53-7.62-6.1,0-6.73,7-13.59,7-18.42,0-1.39-.51-1.9-1.4-1.9-1.91,0-6.48,2-11.69,8.38-3.3,3.94-5.59,14.61-5.59,16.39,0,1.39-.63,1.9-1.78,1.9s-3.81-.51-6-.51c-2.41,0-4.19,1-4.7,1a.46.46,0,0,1-.5-.51c0-.51,1.27-1.4,2.28-3.43,2-3.55,3.05-8.25,5.08-15.75,3.43-12.45,7.37-28.07,8.26-31A12.64,12.64,0,0,1,348,238.11Z"/><path class="cls-3" d="M395.59,264.28c5.08,0,8.89,2.16,8.89,5.71,0,6.61-7.36,11.05-13.72,11.05-1.27,0-2.54-.25-2.54-1.14a.6.6,0,0,1,.64-.63c4.82,0,8.89-6,8.89-11.31,0-1-.51-1.65-1.4-1.65-4.82,0-10.67,9.78-10.67,17.66,0,5.71,2.67,7.62,5.72,7.62,4.82,0,9.14-5.08,9.14-5.08l1,1s-6.35,7.88-15.75,7.88c-5.46,0-11.43-2.92-11.43-9.91C374.38,273.3,387.33,264.28,395.59,264.28Z"/><path class="cls-3" d="M477.52,219.69c-21.72,0-44.84,15.88-44.84,35.57,0,8.76,3.55,14.73,12.45,14.73,6.73,0,10.92-4.7,10.92-9.4,0-2.92-2.41-3.43-2.41-6.09a3.8,3.8,0,0,1,4.06-4.07c2.79,0,4.19,2,4.19,5.21,0,8.89-7.62,16.77-17.53,16.77-11.05,0-20.83-5.59-20.83-17.91,0-22.36,30.36-36.71,53.86-36.71a69.2,69.2,0,0,1,14.23,1.39,22.53,22.53,0,0,1,11.17-3.3c3.69,0,7.63,1,7.63,2.29a2.37,2.37,0,0,1-2.42,2.54c-1.78,0-2-2.92-5.21-2.92-1.65,0-3.55,1-5.71,2.66,11.56,3.69,21,11.56,21,21.85,0,17.53-19.56,26.42-29.85,26.42-3.31,0-5.59-.5-5.59-1.52,0-.64.38-1.14.89-1.14a13.3,13.3,0,0,0,2.41.38c7.62,0,18.42-8.39,18.42-24,0-8.26-2.67-14.86-9.91-18.8-13.34,14.73-11.94,46.87-22.74,64.91a30.68,30.68,0,0,1-25.91,15.24c-10.29,0-13.46-5.21-13.46-7.37a2.07,2.07,0,0,1,2-2.28,1.86,1.86,0,0,1,1.9,1.9c0,1.4,1.53,4.7,6.74,4.7,7.36,0,10.67-5.21,15.62-15.62,8.13-17,14.35-50.94,30.1-63.77A36.47,36.47,0,0,0,477.52,219.69Z"/><path class="cls-3" d="M526.79,238.11a8.12,8.12,0,0,1-1.77.13,20.43,20.43,0,0,1-3.94-.64l1.14-1.52a12.82,12.82,0,0,0,3.69.51,32.1,32.1,0,0,0,12.82-2.92l.64,1.14a17.69,17.69,0,0,0-5.21,6.22c-3.43,6.23-12.45,36.33-12.45,45.35,0,3.17,1.16,4.08,2.42,3.94,4.67-.53,8.2-12.2,8.2-12.2l1,1s-3.83,16.26-14.55,16.26a7.57,7.57,0,0,1-7.87-7.75c0-6.22,5.08-21.85,10.28-42.17A11.8,11.8,0,0,1,526.79,238.11Z"/><path class="cls-3" d="M557.79,290.06a10,10,0,0,1,.63-4.06c-4.7,5.21-10.41,9.4-15.37,9.4-3.68,0-7.24-1.78-7.24-6.48,0-5.59,6.86-13.21,6.86-18.16,0-.89-.39-1.13-1.14-1.27-5.14-1-8.19,9.65-8.19,9.65l-1-1c1.63-6,3.56-14.08,15.8-13.84,3.56.06,5.47,1.65,5.47,4.19,0,5.08-6.35,14-6.35,19.81a1.78,1.78,0,0,0,1.9,2c1.78,0,4.45-1.4,9.15-7,2-2.54,3-8.89,4.57-12.07a11,11,0,0,1,8.64-6.22c5.08-.64,6.6-2.16,6.6-2.16l.89,1.4a14,14,0,0,0-5.08,5.59c-2.41,4.82-5,14.24-5,18.68a1.31,1.31,0,0,0,1.23,1.36c3.39,0,7-10,7-10l1.45.2s-4.16,13.93-14.3,15.24A5.52,5.52,0,0,1,557.79,290.06Z"/><path class="cls-3" d="M641.69,269.12c0,6.1-5.84,11.43-5.84,18.67,0,2.16,1.14,2.67,1.78,2.67,2.92,0,11.79-9.95,11.79-9.95l-.72,2.61s-7.7,12.28-16.79,12.42c-4.06.06-7.49-2-7.49-6.1,0-6.73,7.11-13.33,7.11-18.29,0-1.52-.63-2-1.52-2-1.66,0-5.59,1.52-10.67,7.75-2.54,3.17-5.72,14.86-5.72,16.89,0,1.4-1.52,1.78-2.67,1.78s-2.79-.38-4.83-.38a26,26,0,0,0-4.06.76c-.38,0-.63-.25-.63-.76s1.14-.76,1.9-2.67c2.79-6.86,5.59-17.65,5.59-21.34,0-1.65-.51-2.41-1.53-2.41s-4.06,1.4-8.89,7.62c-2.54,3.17-6,15.37-6,17.4,0,1.4-.89,1.78-2.79,1.78-1.14,0-2.67-.38-5-.38s-4.31,1-4.82,1c-.26,0-.51-.25-.51-.76s1.52-1.27,2.29-3.05c2.92-6.35,6.73-18.29,6.73-21.46,0-1.27-.38-1.6-1-1.65-6.08-.52-8.88,10.91-8.88,10.91l-1.45-.2c1.15-2.82,2.3-16.26,16.43-15.54,3,.15,5.46,1.52,5.46,4.06a18.56,18.56,0,0,1-1.14,5.85c4.32-5.59,9.91-9.91,14.73-9.91,4.2,0,6.48,2,6.48,4.83a29.06,29.06,0,0,1-1.27,6.47c5.08-6.73,12.83-11.3,17.91-11.3C639.15,264.42,641.69,266.45,641.69,269.12Z"/><path class="cls-3" d="M676.8,234.81a16.27,16.27,0,0,0-5.21,6.22c-2.79,5.34-6,16.64-9.4,29.22,3-3.31,9.28-6.23,12.83-6.23,4.58,0,9.28,3.05,9.28,9.91,0,10.54-8.64,21.47-18.8,21.47-6.1,0-9.4-3.43-10.55-6.23-5.58,6-10.16,6.23-12.57,6.23v-.89c4.7-2,6.22-11.56,9.78-24.26s5.46-20.71,6.48-24.77a11.73,11.73,0,0,1,5.59-7.37,8.21,8.21,0,0,1-1.78.13,20.43,20.43,0,0,1-3.94-.64l1.14-1.52a12.82,12.82,0,0,0,3.69.51,32.14,32.14,0,0,0,12.83-2.92Zm-16.39,42c-.88,2.42-2.79,8.51-2.79,10.29,0,4.07,3,5.21,5.21,5.21,5.46,0,10.29-11.94,10.29-19.56,0-3.56-.89-5.08-2.8-5.08S662.58,270.76,660.41,276.85Z"/><path class="cls-3" d="M709.06,264.28c5.08,0,8.89,2.16,8.89,5.71,0,6.61-7.36,11.05-13.72,11.05-1.27,0-2.54-.25-2.54-1.14a.6.6,0,0,1,.64-.63c4.83,0,8.89-6,8.89-11.31,0-1-.51-1.65-1.4-1.65-4.82,0-10.67,9.78-10.67,17.66,0,5.71,2.67,7.62,5.72,7.62,9-2.34,14.39-11.94,14.39-11.94l1,1s-8.21,14.74-21,14.74c-5.46,0-11.43-2.92-11.43-9.91C687.85,273.3,700.8,264.28,709.06,264.28Z"/><path class="cls-3" d="M740.81,275.33c-2.41,3.43-6.6,16.26-6.6,18.29,0,1.4-.64,1.78-1.78,1.78s-3.68-.38-6-.38-4.45,1-5,1a.54.54,0,0,1-.51-.51c0-.5,1.4-1.39,2.28-3.17,3.05-5.84,6.86-19.18,6.86-21.59,0-.51-.12-1.27-1-1.27-1.4,0-8.86,11.17-8.86,11.17l-1-1c1.55-2.2,6.65-15.66,16.22-15.37,3.55.11,5.59,1.9,5.59,4.19a15.09,15.09,0,0,1-.38,3.68c2.67-3.81,7.36-7.87,10.41-7.87s5,1.9,5,4.19c0,2.79-1.78,5.72-5.21,5.72a3.44,3.44,0,0,1-3.56-3.43c0-.77-.25-1.15-.76-1.15C745.26,269.61,744,270.76,740.81,275.33Z"/><path class="cls-3" d="M260.3,138.31a16.53,16.53,0,0,1-4.71,4A14.26,14.26,0,0,1,250.2,144a13.63,13.63,0,0,1-5.49-.49,14.75,14.75,0,0,1-8.66-7.28,13.68,13.68,0,0,1-1.42-5.35,14.57,14.57,0,0,1,.82-5.61A16.67,16.67,0,0,1,238.5,120a16.4,16.4,0,0,1,4.69-3.92,14.31,14.31,0,0,1,5.36-1.74,14,14,0,0,1,5.49.46,14.68,14.68,0,0,1,8.69,7.31,13.69,13.69,0,0,1,1.42,5.34,14.56,14.56,0,0,1-.81,5.57A16.26,16.26,0,0,1,260.3,138.31Zm-4.17-3.46a8.89,8.89,0,0,0,1.71-3,8.12,8.12,0,0,0-.57-6.46,10.06,10.06,0,0,0-5.47-4.6,8.39,8.39,0,0,0-3.31-.41,7.92,7.92,0,0,0-3.15.94,9.38,9.38,0,0,0-2.69,2.22,9.12,9.12,0,0,0-1.72,3,8.26,8.26,0,0,0,.57,6.47,9.63,9.63,0,0,0,2.32,2.8A9.51,9.51,0,0,0,247,137.6a8.26,8.26,0,0,0,3.32.42,7.92,7.92,0,0,0,3.15-.94A9.39,9.39,0,0,0,256.13,134.85Z"/><path class="cls-3" d="M272.77,123.66l-17.8-21,9.13-7.75a15.6,15.6,0,0,1,5.66-3.22,9.31,9.31,0,0,1,5.38-.06,9.58,9.58,0,0,1,4.58,3.13,9.46,9.46,0,0,1,2.3,5,9.36,9.36,0,0,1-1,5.27,15.83,15.83,0,0,1-4.12,5l-6.42,5.44.37-4,6.76,8Zm-1.43-11.58-4.1-.43,6.15-5.22a6.61,6.61,0,0,0,2.55-3.83,5,5,0,0,0-4.57-5.38,6.6,6.6,0,0,0-4.18,1.9L261,104.33l.21-4.14Zm14.83.21-11.72-3.15,5.21-4.42,11.79,3.09Z"/><path class="cls-3" d="M291.65,107.33l-4-29.87L293,74.12,318,91l-5.7,3.55-21.41-15.3L293,77.88l4.2,26Zm2.12-8.26-1.11-5,12.08-7.51,4,3.19Z"/><path class="cls-3" d="M320.16,90.1,309.65,64.68l4.9-2,22.64,12.07-2.37,1-7.57-18.3L333.09,55,343.6,80.42l-4.85,2L316.07,70.36l2.37-1L326,87.69Z"/><path class="cls-3" d="M362.41,76.1a17,17,0,0,1-6.1.34A14,14,0,0,1,351,74.63a13.6,13.6,0,0,1-4.1-3.68,15,15,0,0,1-2.57-11.11,13.56,13.56,0,0,1,2.07-5.12,14.51,14.51,0,0,1,4-4A18.44,18.44,0,0,1,362.81,48a13.1,13.1,0,0,1,5.63,2.33L365.29,55a10.26,10.26,0,0,0-3.72-1.54,9.93,9.93,0,0,0-3.94.13A10.38,10.38,0,0,0,354.19,55a8.27,8.27,0,0,0-2.38,2.41,8.13,8.13,0,0,0-1.18,3.13,9.38,9.38,0,0,0,.18,3.63,9.48,9.48,0,0,0,1.43,3.3,8.42,8.42,0,0,0,2.44,2.32,8.09,8.09,0,0,0,3.19,1.14,10,10,0,0,0,3.66-.21A11.16,11.16,0,0,0,365,69.3a10.47,10.47,0,0,0,2.94-2.8l4.58,3.66A16.56,16.56,0,0,1,368,73.87,20.36,20.36,0,0,1,362.41,76.1Zm4.22-5.42-2.34-10.07,5.7-1.32,2.52,10.87Z"/><path class="cls-3" d="M384.62,66.87l15-1.19.4,5.09-21.34,1.69L376.51,45l20.83-1.65.4,5.09-14.49,1.15Zm-1.37-11.25,13.27-1,.39,4.94-13.27,1.05Z"/><path class="cls-3" d="M429.5,73.32a16.64,16.64,0,0,1-5.77-1.78A14,14,0,0,1,419.38,68a13.72,13.72,0,0,1-2.54-4.88,15,15,0,0,1,1.43-11.31A13.83,13.83,0,0,1,422,47.72a14.27,14.27,0,0,1,5.09-2.34,16.63,16.63,0,0,1,6.05-.28,16.37,16.37,0,0,1,6.29,2,12.56,12.56,0,0,1,4.38,4.22l-4.55,3.22a9.62,9.62,0,0,0-2.83-2.79,8.84,8.84,0,0,0-3.66-1.28,9.82,9.82,0,0,0-3.61.18,8,8,0,0,0-3,1.44A8.21,8.21,0,0,0,424,54.67a9.3,9.3,0,0,0-1.09,3.47,9.47,9.47,0,0,0,.19,3.63,8.41,8.41,0,0,0,1.47,3,8.23,8.23,0,0,0,2.56,2.15A9.84,9.84,0,0,0,430.53,68a9,9,0,0,0,3.86-.32,9.48,9.48,0,0,0,3.45-2l3.6,4.26a12.9,12.9,0,0,1-5.3,3A16.16,16.16,0,0,1,429.5,73.32Z"/><path class="cls-3" d="M456.78,79.17a17,17,0,0,1-5.52-2.72,14.36,14.36,0,0,1-3.78-4.21A13.48,13.48,0,0,1,445.71,67a13.88,13.88,0,0,1,.51-5.75,14.07,14.07,0,0,1,2.66-5.11,13.62,13.62,0,0,1,4.32-3.45,14.8,14.8,0,0,1,5.47-1.52,16.82,16.82,0,0,1,6.06.67,16.63,16.63,0,0,1,5.48,2.71A14.29,14.29,0,0,1,474,58.77a14.27,14.27,0,0,1-1.4,16.11,13.64,13.64,0,0,1-4.31,3.45,14.71,14.71,0,0,1-5.42,1.5A16.33,16.33,0,0,1,456.78,79.17ZM458.27,74a9.19,9.19,0,0,0,3.45.35,8.25,8.25,0,0,0,3.15-1,8.47,8.47,0,0,0,2.54-2.17,10.15,10.15,0,0,0,2-6.86,8.53,8.53,0,0,0-1-3.19,8.13,8.13,0,0,0-2.13-2.51,9.33,9.33,0,0,0-3.12-1.56,9,9,0,0,0-3.46-.36,8,8,0,0,0-3.14,1,8.21,8.21,0,0,0-2.55,2.16,10.06,10.06,0,0,0-2,6.85,8.23,8.23,0,0,0,1,3.2,7.76,7.76,0,0,0,2.13,2.51A9.17,9.17,0,0,0,458.27,74Z"/><path class="cls-3" d="M486.1,90.47q-5.3-2.56-6.86-7t1.08-9.83L487,59.83l5.76,2.79-6.62,13.65q-1.71,3.54-1,5.8a6.81,6.81,0,0,0,8.17,4q2.22-.86,3.93-4.39L503.89,68l5.68,2.76-6.72,13.86q-2.64,5.44-7,6.94T486.1,90.47Z"/><path class="cls-3" d="M502.53,98.42,518.41,76,522.73,79l1.89,25.59-2.1-1.49L534,86.94l5.16,3.65-15.88,22.46L519,110,517,84.41l2.09,1.48-11.43,16.17Z"/><path class="cls-3" d="M532,121.14,547.38,105,541,98.88l3.58-3.75L562,111.75l-3.58,3.76L552,109.4l-15.4,16.16Z"/><path class="cls-3" d="M549.08,139.08l8.73-7.08-2.07,3.56,8-22.12,4.28,5.28-6.13,17-2.46-3,17.89-2.45,4,4.87L558,138.3l3.89-1.33-8.73,7.08Z"/><path class="cls-3" d="M261.53,414.43l-2-1.81,12.68-14.1,9.95,9-1.57,1.75-7.94-7.14Zm6.49-7.61,7.27,6.54-1.56,1.74-7.27-6.55Z"/><path class="cls-3" d="M281.43,431a11,11,0,0,1-2.84-2.94,9.65,9.65,0,0,1-1.4-3.54,9.38,9.38,0,0,1,.08-3.73,9.61,9.61,0,0,1,1.64-3.57,9.77,9.77,0,0,1,2.86-2.67,9.38,9.38,0,0,1,3.51-1.26,9.74,9.74,0,0,1,3.79.21,11.48,11.48,0,0,1,6.53,4.69,9.81,9.81,0,0,1,1.4,3.52,9,9,0,0,1-.09,3.73,10.39,10.39,0,0,1-4.53,6.28,9.26,9.26,0,0,1-3.51,1.26,9.69,9.69,0,0,1-3.78-.22A10.83,10.83,0,0,1,281.43,431Zm1.41-2a7.72,7.72,0,0,0,2.68,1.26,6.88,6.88,0,0,0,2.78.12,7.19,7.19,0,0,0,2.61-1,7.91,7.91,0,0,0,3.39-4.71,7.05,7.05,0,0,0,.1-2.78,6.94,6.94,0,0,0-1-2.6,8.22,8.22,0,0,0-4.75-3.42,7.06,7.06,0,0,0-5.41.83,7.65,7.65,0,0,0-2.15,2,7.53,7.53,0,0,0-1.24,2.67,6.92,6.92,0,0,0-.09,2.79,7.05,7.05,0,0,0,1,2.62A7.83,7.83,0,0,0,282.84,429Z"/><path class="cls-3" d="M295.92,440.43l9.26-16.55,6.46,3.61a10.15,10.15,0,0,1,3.32,2.77,6,6,0,0,1,1.26,3.3,6.51,6.51,0,0,1-.91,3.56,6.41,6.41,0,0,1-2.55,2.63,6.12,6.12,0,0,1-3.47.65,10.5,10.5,0,0,1-4.1-1.39L300,436.12l1.67-.49-3.43,6.12Zm5.66-4.56-.42-1.76,5.09,2.85a6,6,0,0,0,4,.94,3.91,3.91,0,0,0,2.71-2.1,3.85,3.85,0,0,0,.36-3.4,6.05,6.05,0,0,0-2.9-2.89l-5.08-2.84,1.73-.59Zm5.4,10.75-.84-8.36,2.53,1.42.89,8.38Z"/><path class="cls-3" d="M333,458.29a10.84,10.84,0,0,1-3.53-2.06,9.7,9.7,0,0,1-2.31-3,9.93,9.93,0,0,1,1.71-10.85,9.47,9.47,0,0,1,6.74-3,11.42,11.42,0,0,1,7.55,2.74,9.82,9.82,0,0,1,2.31,3,9.41,9.41,0,0,1,.93,3.62,10.43,10.43,0,0,1-2.66,7.27,9.07,9.07,0,0,1-3,2.17,9.64,9.64,0,0,1-3.7.81A10.79,10.79,0,0,1,333,458.29Zm.83-2.26a7.7,7.7,0,0,0,2.92.49,7,7,0,0,0,5-2.29,7.84,7.84,0,0,0,2-5.44,7.14,7.14,0,0,0-.65-2.71,6.92,6.92,0,0,0-1.66-2.23,8.17,8.17,0,0,0-5.5-2,7.08,7.08,0,0,0-2.73.63,7,7,0,0,0-2.25,1.65,7.79,7.79,0,0,0-2,5.44,6.81,6.81,0,0,0,.67,2.71,7,7,0,0,0,1.67,2.24A7.86,7.86,0,0,0,333.84,456Z"/><path class="cls-3" d="M354.23,464.59l-3.59-20.4,2.84.7,3.28,18.82-1.63-.4,11.66-15.16,2.63.65-12.59,16.43Z"/><path class="cls-3" d="M373.25,466.12l10.94,1.55-.33,2.33-13.62-1.93,2.66-18.78,13.25,1.89-.33,2.33L375.25,452Zm.94-8.38,9.66,1.37-.32,2.28L373.87,460Z"/><path class="cls-3" d="M391.23,470.64l.73-18.95,7.4.29a10.29,10.29,0,0,1,4.21.95,5.94,5.94,0,0,1,2.62,2.37,7.1,7.1,0,0,1-.27,7.08,6.07,6.07,0,0,1-2.79,2.16,10.45,10.45,0,0,1-4.28.62l-5.9-.23,1.26-1.2-.27,7Zm3-6.63L393,462.63l5.82.23a6.09,6.09,0,0,0,4-1,4.38,4.38,0,0,0,.24-6.3,6.07,6.07,0,0,0-3.9-1.26l-5.82-.22,1.27-1.31Zm9.7,7.12-4.55-7.06,2.9.11,4.6,7.06Z"/><path class="cls-3" d="M421.9,470.62l-.2-1.84,6.91-8.21A11.08,11.08,0,0,0,430,458.7a5.06,5.06,0,0,0,.53-1.45,4.74,4.74,0,0,0,0-1.24,2.79,2.79,0,0,0-1.26-2.18,4.68,4.68,0,0,0-3.08-.53,7.13,7.13,0,0,0-2.67.79,5.56,5.56,0,0,0-1.94,1.77l-2-1.4a7.09,7.09,0,0,1,2.68-2.42,10.73,10.73,0,0,1,3.92-1.16,8.55,8.55,0,0,1,3.49.28,4.82,4.82,0,0,1,3.53,4.3,7,7,0,0,1-.05,1.83,6.48,6.48,0,0,1-.72,2,15.41,15.41,0,0,1-1.71,2.44L424.56,469l-.75-1,11.39-1.2.25,2.34Z"/><path class="cls-3" d="M446.52,467.47a12.07,12.07,0,0,1-3.93.13,8.65,8.65,0,0,1-3.34-1.06l.81-2.34a7.25,7.25,0,0,0,2.7,1,9,9,0,0,0,3.27-.06,5.26,5.26,0,0,0,3.1-1.54,3,3,0,0,0,.67-2.64,2.95,2.95,0,0,0-2.82-2.56,11.43,11.43,0,0,0-3.47.25l-4.23.82-.91-9.92,10.51-2,.45,2.31-9.52,1.85,1.13-1.57.72,7.83-1.63-1,3.58-.69a12.2,12.2,0,0,1,4.64-.16,5.22,5.22,0,0,1,2.86,1.5,5.66,5.66,0,0,1,1.33,2.77,5.76,5.76,0,0,1-.2,3.06,5.59,5.59,0,0,1-1.92,2.55A8.86,8.86,0,0,1,446.52,467.47Z"/><path class="cls-3" d="M473.82,460.08l-2.35-6.87,1.13,1.39-12.05-10,2.74-.94,10.15,8.47-1.49.51,2.85-12.92,2.53-.87L474,454.13v-1.79l2.36,6.87Z"/><path class="cls-3" d="M490,451.38,500,446.8l1,2.15-12.53,5.7-7.85-17.27,12.18-5.54,1,2.15-9.72,4.42Zm-3.71-7.57,8.88-4,.95,2.09-8.88,4Z"/><path class="cls-3" d="M505,447l-2.14-20.71,2.32-1.35,17,12-2.45,1.43-15.42-11.2.94-.55,2.17,18.93Zm.77-5.94-.46-2.24,9.22-5.38,1.77,1.48Z"/><path class="cls-3" d="M527,433.6,515.8,418.33l6-4.39a10.63,10.63,0,0,1,3.89-1.89,6,6,0,0,1,3.53.23,6.46,6.46,0,0,1,2.87,2.3,6.29,6.29,0,0,1,1.33,3.41,5.94,5.94,0,0,1-.84,3.42,10.36,10.36,0,0,1-3,3.16l-4.75,3.5.24-1.73,4.16,5.65Zm-1.82-7-1.77-.35,4.69-3.45a6,6,0,0,0,2.51-3.24,3.9,3.9,0,0,0-.79-3.34,3.82,3.82,0,0,0-2.94-1.73,6,6,0,0,0-3.83,1.44l-4.7,3.45.18-1.81Zm12-.48-8-2.68,2.33-1.72,8,2.65Z"/><path class="cls-3" d="M549.23,416.22a12.65,12.65,0,0,1-3.52,2.28,8.3,8.3,0,0,1-3.46.81l-.67-2.24a8.7,8.7,0,0,0,3.1-.68,10,10,0,0,0,3-1.88,7.87,7.87,0,0,0,1.74-2.08,3.22,3.22,0,0,0,.43-1.79,2.45,2.45,0,0,0-.65-1.44,2.06,2.06,0,0,0-1.52-.74,4.8,4.8,0,0,0-1.88.39,18.16,18.16,0,0,0-2.08,1q-1.1.62-2.25,1.17a10.84,10.84,0,0,1-2.29.81,4.63,4.63,0,0,1-2.25,0,4.54,4.54,0,0,1-2.12-1.42,5,5,0,0,1-1.23-2.52,5.36,5.36,0,0,1,.44-3.06,10,10,0,0,1,2.55-3.31,12.76,12.76,0,0,1,2.72-1.87,9.25,9.25,0,0,1,2.93-1l.79,2.21a8.7,8.7,0,0,0-2.7.85,10.11,10.11,0,0,0-2.2,1.49,7.25,7.25,0,0,0-1.68,2.06,3.27,3.27,0,0,0-.39,1.82,2.6,2.6,0,0,0,.67,1.44,2.07,2.07,0,0,0,1.54.76,4.56,4.56,0,0,0,1.86-.4c.66-.28,1.36-.63,2.09-1s1.48-.79,2.25-1.17a10.11,10.11,0,0,1,2.28-.82,4.59,4.59,0,0,1,2.24,0,4.3,4.3,0,0,1,2.09,1.39,4.93,4.93,0,0,1,1.21,2.5,5.45,5.45,0,0,1-.48,3.1A9.92,9.92,0,0,1,549.23,416.22Z"/></g></g></svg>