<?xml version="1.0" encoding="utf-8"?>
<svg id="Layer_1" viewBox="0 0 804.51 519.66" width="804.51px" height="519.66px" xmlns="http://www.w3.org/2000/svg" xmlns:xlink="http://www.w3.org/1999/xlink" xmlns:bx="https://boxy-svg.com"><defs><style>
      .cls-1 {
        fill: #fff;
      }

      .cls-2 {
        fill: #511c22;
      }

      .cls-3 {
        fill: #a21e21;
      }
    </style><bx:export><bx:file format="svg"/><bx:file format="svg" path="Untitled 2.svg" xlink:href="#Layer_2"/></bx:export></defs><g id="Layer_2"><g id="Layer_1-2"><circle class="cls-3" cx="404.38" cy="259.83" r="259.83"/><rect class="cls-3" y="178.36" width="804.51" height="162.76"/><path class="cls-2" d="M404.3,512.08c-54.97.17-108.47-17.79-152.22-51.08-41.73-31.72-72.64-75.54-88.52-125.49H8.9v-148.88h153.82c15.47-50.59,46.32-95.1,88.28-127.32,90.5-69.21,216.16-69.21,306.66,0,41.95,32.23,72.8,76.73,88.26,127.32h149.69v148.89h-150.56c-15.89,49.94-46.81,93.77-88.53,125.48-43.75,33.3-97.24,51.25-152.22,51.08ZM19.53,324.89h151.92l1.13,3.8c14.83,49.32,44.91,92.68,85.92,123.84,86.26,65.23,205.35,65.23,291.61,0,41-31.16,71.07-74.52,85.89-123.84l1.13-3.8h147.87v-127.63h-147.1l-1.1-3.86c-29.41-103.26-125.02-175.4-232.5-175.4s-203.09,72.14-232.49,175.4l-1.1,3.86H19.53v127.63Z"/><path class="cls-2" d="M554.29,197.05c-35.31-81.56-130.06-119.06-211.62-83.75-37.55,16.26-67.5,46.2-83.75,83.75h295.37Z"/><path class="cls-2" d="M258.92,324.9c35.31,81.56,130.06,119.06,211.62,83.75,37.55-16.26,67.5-46.2,83.75-83.75h-295.37Z"/><path class="cls-1" d="M90.63,218.8c-15.25,0-33,13.47-33,33.16,0,8.76,2.92,16,12.45,16,6.86,0,11.3-5.08,11.3-9.78,0-2.92-2.41-3.56-2.41-6-.06-2.17,1.66-3.97,3.83-4.03.07,0,.14,0,.2,0,2.67,0,4.32,2.15,4.32,5.2,0,9.28-8.51,17-18,17-11.05,0-20.84-7.11-20.84-19.05,0-22.35,22.23-35.06,43.32-35.06,19.94,0,24.64,4.32,44,4.32,4.64.18,9.21-1.11,13.08-3.68.41-.3.89-.47,1.4-.51.38-.03.72.25.76.63-.06.62-.32,1.21-.76,1.66-2,2.92-8.89,12.95-15.75,12.95s-12.58-2.66-17.66-4.95c-5.59,7.37-7.87,17.27-9.65,28.71,3.94,1.14,7.37,2.41,11.18,2.41,3.63-.16,7.11-1.49,9.91-3.81l1.14,1.14c-5.84,6.86-9.91,10.93-14.86,10.93-3.81,0-5.72-1.66-8.51-3.56-1.53,9.4-3.69,18.8-8,26-6.47,10.67-16.89,15.24-25.53,15.24-10.29,0-13.59-5.08-13.59-7.37-.08-1.18.81-2.2,1.99-2.28,0,0,0,0,0,0,1.02-.03,1.88.77,1.91,1.79,0,.04,0,.07,0,.11,0,1.78,1.78,4.7,6.73,4.7,7.5,0,10.92-5.21,15.88-15.62,3.43-7,6.1-16,9.14-25.66-2.08-.09-4.14.35-6,1.27l-.5-.89c2.17-2.01,4.78-3.49,7.62-4.32,4.06-12.19,9.14-23.88,17.15-30.74-6.38-2.86-12.99-5.91-22.26-5.91Z"/><path class="cls-1" d="M143.08,275.33c-2.41,3.43-6.6,16.26-6.6,18.29,0,1.4-.64,1.78-1.78,1.78s-3.68-.38-6-.38-4.45,1-4.95,1c-.28-.01-.5-.23-.51-.51,0-.5,1.39-1.39,2.28-3.17,3-5.84,6.86-19.18,6.86-21.59,0-.51-.12-1.27-1-1.27-1.4,0-5,3.3-5,3.3l-.89-1.15c1.91-1.77,8-7.36,12.2-7.36,3.56,0,5.59,1.9,5.59,4.19.02,1.24-.1,2.47-.38,3.68,2.66-3.81,7.36-7.87,10.41-7.87s5,1.9,5,4.19c0,2.79-1.78,5.72-5.21,5.72-1.9.07-3.49-1.42-3.56-3.32,0-.04,0-.07,0-.11,0-.77-.25-1.15-.76-1.15-1.25,0-2.52,1.16-5.7,5.73Z"/><path class="cls-1" d="M191,290.44c4.35-2.77,9.44-14.51,9.44-14.51h1.3s-8,19.79-14.84,19.47c-3.81-.18-6.1-2.54-6.1-5.59-.03-1.33.15-2.66.51-3.94-2,3.56-8,9.53-13.72,9.53-6.73,0-10.29-3.69-10.29-9.4,0-12.07,11.94-21.72,21-21.72,4.82,0,7.37,2.41,7.75,5.59.89-2.54,2.92-4.2,7.24-4.83,2.18-.18,4.28-.93,6.09-2.16l.77,1.52c-2.23,1.24-4.01,3.16-5.08,5.47-2,3.93-5.34,14.35-5.34,18.67-.03,1.4.2,2.59,1.27,1.9ZM181.56,281.81c1-2.42,2.54-7.5,2.54-9.53,0-3-1-5.72-4.57-5.72-6.22,0-10.93,10.67-10.93,18.3,0,4.69,1,6.6,3.31,6.6,2.93,0,7.37-4.95,9.66-9.65h-.01Z"/><path class="cls-1" d="M236.7,264.28c3.18,0,6,2,6,4.7,0,6.09-5.84,11.43-5.84,18.67,0,2.16,1.14,2.67,1.77,2.67,2.92,0,11.16-8.88,11.16-8.88l-.84,3.06s-9.43,10.9-16,10.9c-4.07,0-7.5-2-7.5-6.1,0-6.73,7.12-13.59,7.12-18.29,0-1.52-.64-2-1.53-2-2.28,0-6.86,2.66-11.18,7.62-2.66,3-6.09,15-6.09,17,0,1.4-.89,1.78-2.8,1.78-1.14,0-2.66-.38-4.95-.38s-4.32,1-4.83,1c-.25,0-.51-.25-.51-.76s1.53-1.27,2.29-3c2.92-6.35,6.73-18.29,6.73-21.46,0-1.27,0-1.63-.61-1.9-3.42-1.6-7.28,7.07-7.28,7.07h-1.3c2.25-5.39,3.94-11.4,14.27-11.65,3.05-.08,5.47,1.52,5.47,4.06-.1,2.2-.49,4.38-1.15,6.48,5.02-5.77,12.77-10.59,17.6-10.59Z"/><path class="cls-1" d="M261.24,276.73c6.36-7.12,12.71-13,16.64-13,2.55-.11,4.72,1.87,4.83,4.43,0,.09,0,.18,0,.27,0,2.54-1.4,5.72-5.08,5.72-1.85.17-3.5-1.19-3.67-3.04-.02-.17-.02-.35,0-.52,0-.76-.13-1.14-.64-1.14-1.78,0-5.84,3.55-7.37,5.46,0,0,3.05,7.11,6.35,13.08,1.53,2.8,3.44,5.34,7,6.22l.13,1.15h-7.24c-3.94,0-7.75-1.4-9-4.19l-3.94-8.64c-1.15,3.65-2,7.39-2.54,11.18,0,1.39-.63,1.9-1.78,1.9s-3.81-.51-6-.51c-2.41,0-4.19,1-4.7,1-.26.02-.49-.17-.51-.43,0-.03,0-.06,0-.08,0-.51,1.27-1.4,2.29-3.43,2-3.55,3.05-8.25,5.08-15.75,3.43-12.45,7.37-28.07,8.26-31,.87-3.07,2.86-5.71,5.59-7.37-.59.11-1.18.15-1.78.13-1.33-.08-2.65-.3-3.94-.64l1.14-1.52c1.2.35,2.44.52,3.69.51,4.43-.08,8.8-1.07,12.83-2.92l.63,1.14c-2.2,1.64-3.98,3.77-5.21,6.22-2.92,5.53-8.29,25.98-11.05,35.77Z"/><path class="cls-1" d="M308.08,260.85h2.41c1.78-6.23,5.46-8.77,10.16-10,5.59-1.39,7-2.41,7-2.41l.76,1.52c-2.19,1.38-3.99,3.3-5.21,5.59-1.05,1.68-1.9,3.47-2.54,5.34h8.89l-1.15,2.11h-8.4c-2.42,8.25-5.59,18.42-5.59,23,0,3.17,1,4.32,3.17,4.32,3.43,0,16.17-11.5,16.17-11.5l.89,1s-14.15,15.25-22.52,15.56c-4.95.18-8.76-3.3-8.76-7.37,0-5.21,3.3-14,6.6-25h-3.05l1.17-2.16Z"/><path class="cls-1" d="M348,238.11c-.59.11-1.18.15-1.78.13-1.33-.08-2.65-.3-3.94-.64l1.15-1.52c1.2.35,2.43.52,3.68.51,4.43-.08,8.8-1.07,12.83-2.92l.63,1.14c-2.16,1.68-3.93,3.8-5.2,6.22-3.05,5.46-10.42,33.66-10.42,33.66,5.21-6,13.21-10.79,17.91-10.79,3.05,0,5.84,1.39,5.84,5,0,6.22-5.71,11.94-5.71,18.8,0,2.16,1.14,2.67,1.9,2.67,2.42,0,9.86-7.39,9.86-7.39l1,1s-8.4,11.42-16.75,11.42c-3.81,0-7.62-1.53-7.62-6.1,0-6.73,7-13.59,7-18.42,0-1.39-.51-1.9-1.4-1.9-1.91,0-6.48,2-11.69,8.38-3.3,3.94-5.59,14.61-5.59,16.39,0,1.39-.63,1.9-1.78,1.9s-3.81-.51-6-.51c-2.41,0-4.19,1-4.7,1-.25.02-.48-.16-.5-.42,0-.03,0-.06,0-.09,0-.51,1.27-1.4,2.28-3.43,2-3.55,3.05-8.25,5.08-15.75,3.43-12.45,7.37-28.07,8.26-31,.89-3.08,2.91-5.7,5.66-7.34Z"/><path class="cls-1" d="M395.59,264.28c5.08,0,8.89,2.16,8.89,5.71,0,6.61-7.36,11.05-13.72,11.05-1.27,0-2.54-.25-2.54-1.14-.02-.33.24-.61.57-.63.02,0,.05,0,.07,0,4.82,0,8.89-6,8.89-11.31,0-1-.51-1.65-1.4-1.65-4.82,0-10.67,9.78-10.67,17.66,0,5.71,2.67,7.62,5.72,7.62,4.82,0,9.14-5.08,9.14-5.08l1,1s-6.35,7.88-15.75,7.88c-5.46,0-11.43-2.92-11.43-9.91.02-12.18,12.97-21.2,21.23-21.2Z"/><path class="cls-1" d="M477.52,219.69c-21.72,0-44.84,15.88-44.84,35.57,0,8.76,3.55,14.73,12.45,14.73,6.73,0,10.92-4.7,10.92-9.4,0-2.92-2.41-3.43-2.41-6.09-.15-2.09,1.42-3.91,3.51-4.07.18-.01.37-.01.55,0,2.79,0,4.19,2,4.19,5.21,0,8.89-7.62,16.77-17.53,16.77-11.05,0-20.83-5.59-20.83-17.91,0-22.36,30.36-36.71,53.86-36.71,4.78-.03,9.55.44,14.23,1.39,3.37-2.06,7.22-3.2,11.17-3.3,3.69,0,7.63,1,7.63,2.29.09,1.31-.89,2.44-2.19,2.53-.08,0-.15,0-.23,0-1.78,0-2-2.92-5.21-2.92-1.65,0-3.55,1-5.71,2.66,11.56,3.69,21,11.56,21,21.85,0,17.53-19.56,26.42-29.85,26.42-3.31,0-5.59-.5-5.59-1.52,0-.64.38-1.14.89-1.14.79.2,1.6.33,2.41.38,7.62,0,18.42-8.39,18.42-24,0-8.26-2.67-14.86-9.91-18.8-13.34,14.73-11.94,46.87-22.74,64.91-5.39,9.25-15.21,15.03-25.91,15.24-10.29,0-13.46-5.21-13.46-7.37-.12-1.14.71-2.15,1.85-2.27.05,0,.1,0,.15,0,1.03-.02,1.88.79,1.9,1.82,0,.03,0,.05,0,.08,0,1.4,1.53,4.7,6.74,4.7,7.36,0,10.67-5.21,15.62-15.62,8.13-17,14.35-50.94,30.1-63.77-3.62-1.13-7.39-1.69-11.18-1.66Z"/><path class="cls-1" d="M526.79,238.11c-.58.11-1.18.15-1.77.13-1.33-.08-2.65-.3-3.94-.64l1.14-1.52c1.2.35,2.44.52,3.69.51,4.43-.08,8.79-1.07,12.82-2.92l.64,1.14c-2.2,1.64-3.98,3.77-5.21,6.22-3.43,6.23-12.45,36.33-12.45,45.35,0,3.17,1.16,4.08,2.42,3.94,4.67-.53,8.2-12.2,8.2-12.2l1,1s-3.83,16.26-14.55,16.26c-4.18.17-7.7-3.08-7.87-7.26,0-.16,0-.33,0-.49,0-6.22,5.08-21.85,10.28-42.17.79-3.11,2.81-5.76,5.6-7.35Z"/><path class="cls-1" d="M557.79,290.06c-.07-1.38.14-2.76.63-4.06-4.7,5.21-10.41,9.4-15.37,9.4-3.68,0-7.24-1.78-7.24-6.48,0-5.59,6.86-13.21,6.86-18.16,0-.89-.39-1.13-1.14-1.27-5.14-1-8.19,9.65-8.19,9.65l-1-1c1.63-6,3.56-14.08,15.8-13.84,3.56.06,5.47,1.65,5.47,4.19,0,5.08-6.35,14-6.35,19.81-.12.98.57,1.87,1.54,1.99.12.02.24.02.36,0,1.78,0,4.45-1.4,9.15-7,2-2.54,3-8.89,4.57-12.07,1.62-3.42,4.88-5.77,8.64-6.22,5.08-.64,6.6-2.16,6.6-2.16l.89,1.4c-2.17,1.36-3.93,3.3-5.08,5.59-2.41,4.82-5,14.24-5,18.68-.03.71.52,1.32,1.23,1.36,3.39,0,7-10,7-10l1.45.2s-4.16,13.93-14.3,15.24c-3,.55-5.88-1.43-6.43-4.43-.05-.28-.08-.55-.09-.83Z"/><path class="cls-1" d="M641.69,269.12c0,6.1-5.84,11.43-5.84,18.67,0,2.16,1.14,2.67,1.78,2.67,2.92,0,11.79-9.95,11.79-9.95l-.72,2.61s-7.7,12.28-16.79,12.42c-4.06.06-7.49-2-7.49-6.1,0-6.73,7.11-13.33,7.11-18.29,0-1.52-.63-2-1.52-2-1.66,0-5.59,1.52-10.67,7.75-2.54,3.17-5.72,14.86-5.72,16.89,0,1.4-1.52,1.78-2.67,1.78s-2.79-.38-4.83-.38c-1.37.15-2.73.4-4.06.76-.38,0-.63-.25-.63-.76s1.14-.76,1.9-2.67c2.79-6.86,5.59-17.65,5.59-21.34,0-1.65-.51-2.41-1.53-2.41s-4.06,1.4-8.89,7.62c-2.54,3.17-6,15.37-6,17.4,0,1.4-.89,1.78-2.79,1.78-1.14,0-2.67-.38-5-.38s-4.31,1-4.82,1c-.26,0-.51-.25-.51-.76s1.52-1.27,2.29-3.05c2.92-6.35,6.73-18.29,6.73-21.46,0-1.27-.38-1.6-1-1.65-6.08-.52-8.88,10.91-8.88,10.91l-1.45-.2c1.15-2.82,2.3-16.26,16.43-15.54,3,.15,5.46,1.52,5.46,4.06-.06,2-.45,3.97-1.14,5.85,4.32-5.59,9.91-9.91,14.73-9.91,4.2,0,6.48,2,6.48,4.83-.18,2.2-.6,4.37-1.27,6.47,5.08-6.73,12.83-11.3,17.91-11.3,3.48-.02,6.02,2.01,6.02,4.68Z"/><path class="cls-1" d="M676.8,234.81c-2.23,1.6-4.03,3.74-5.21,6.22-2.79,5.34-6,16.64-9.4,29.22,3-3.31,9.28-6.23,12.83-6.23,4.58,0,9.28,3.05,9.28,9.91,0,10.54-8.64,21.47-18.8,21.47-6.1,0-9.4-3.43-10.55-6.23-5.58,6-10.16,6.23-12.57,6.23v-.89c4.7-2,6.22-11.56,9.78-24.26s5.46-20.71,6.48-24.77c.78-3.12,2.8-5.78,5.59-7.37-.59.11-1.18.15-1.78.13-1.33-.08-2.65-.3-3.94-.64l1.14-1.52c1.2.35,2.44.52,3.69.51,4.43-.08,8.8-1.07,12.83-2.92l.63,1.14ZM660.41,276.81c-.88,2.42-2.79,8.51-2.79,10.29,0,4.07,3,5.21,5.21,5.21,5.46,0,10.29-11.94,10.29-19.56,0-3.56-.89-5.08-2.8-5.08s-7.74,3.09-9.91,9.18v-.04Z"/><path class="cls-1" d="M709.06,264.28c5.08,0,8.89,2.16,8.89,5.71,0,6.61-7.36,11.05-13.72,11.05-1.27,0-2.54-.25-2.54-1.14-.02-.33.24-.61.57-.63.02,0,.05,0,.07,0,4.83,0,8.89-6,8.89-11.31,0-1-.51-1.65-1.4-1.65-4.82,0-10.67,9.78-10.67,17.66,0,5.71,2.67,7.62,5.72,7.62,9-2.34,14.39-11.94,14.39-11.94l1,1s-8.21,14.74-21,14.74c-5.46,0-11.43-2.92-11.43-9.91.02-12.18,12.97-21.2,21.23-21.2Z"/><path class="cls-1" d="M740.81,275.33c-2.41,3.43-6.6,16.26-6.6,18.29,0,1.4-.64,1.78-1.78,1.78s-3.68-.38-6-.38-4.45,1-5,1c-.28-.01-.5-.23-.51-.51,0-.5,1.4-1.39,2.28-3.17,3.05-5.84,6.86-19.18,6.86-21.59,0-.51-.12-1.27-1-1.27-1.4,0-8.86,11.17-8.86,11.17l-1-1c1.55-2.2,6.65-15.66,16.22-15.37,3.55.11,5.59,1.9,5.59,4.19.02,1.24-.1,2.47-.38,3.68,2.67-3.81,7.36-7.87,10.41-7.87s5,1.9,5,4.19c0,2.79-1.78,5.72-5.21,5.72-1.9.07-3.49-1.42-3.56-3.32,0-.04,0-.07,0-.11,0-.77-.25-1.15-.76-1.15-1.25,0-2.51,1.15-5.7,5.72Z"/><path class="cls-1" d="M260.3,138.31c-1.3,1.62-2.9,2.97-4.71,4-1.67.92-3.5,1.49-5.39,1.69-1.84.21-3.71.05-5.49-.49-3.74-1.18-6.86-3.8-8.66-7.28-.83-1.67-1.32-3.49-1.42-5.35-.1-1.91.18-3.81.82-5.61.68-1.93,1.72-3.72,3.05-5.27,1.3-1.59,2.89-2.92,4.69-3.92,1.65-.93,3.48-1.52,5.36-1.74,1.84-.21,3.71-.06,5.49.46,3.76,1.17,6.89,3.81,8.69,7.31.83,1.66,1.31,3.48,1.42,5.34.09,1.89-.18,3.78-.81,5.57-.67,1.94-1.7,3.73-3.04,5.29ZM256.13,134.85c.76-.88,1.34-1.9,1.71-3,.72-2.14.51-4.48-.57-6.46-1.2-2.15-3.15-3.79-5.47-4.6-1.06-.36-2.19-.5-3.31-.41-1.1.09-2.18.41-3.15.94-1.03.57-1.94,1.32-2.69,2.22-.76.88-1.34,1.9-1.72,3-.7,2.14-.5,4.48.57,6.47.59,1.07,1.38,2.02,2.32,2.8.93.8,2.01,1.4,3.18,1.79,1.07.37,2.2.51,3.32.42,1.1-.09,2.18-.41,3.15-.94,1.02-.57,1.92-1.33,2.66-2.23h0Z"/><path class="cls-1" d="M272.77,123.66l-17.8-21,9.13-7.75c1.64-1.46,3.57-2.56,5.66-3.22,1.75-.55,3.62-.57,5.38-.06,1.8.57,3.4,1.66,4.58,3.13,1.25,1.4,2.05,3.14,2.3,5,.19,1.82-.16,3.65-1,5.27-1.01,1.93-2.42,3.64-4.12,5l-6.42,5.44.37-4,6.76,8-4.84,4.19ZM271.34,112.08l-4.1-.43,6.15-5.22c1.28-.93,2.19-2.29,2.55-3.83.22-2.75-1.82-5.15-4.57-5.38-1.58.11-3.06.79-4.18,1.9l-6.19,5.21.21-4.14,10.13,11.89ZM286.17,112.29l-11.72-3.15,5.21-4.42,11.79,3.09-5.28,4.48Z"/><path class="cls-1" d="M291.65,107.33l-4-29.87,5.35-3.34,25,16.88-5.7,3.55-21.41-15.3,2.11-1.37,4.2,26-5.55,3.45ZM293.77,99.07l-1.11-5,12.08-7.51,4,3.19-14.97,9.32Z"/><path class="cls-1" d="M320.16,90.1l-10.51-25.42,4.9-2,22.64,12.07-2.37,1-7.57-18.3,5.84-2.45,10.51,25.42-4.85,2-22.68-12.06,2.37-1,7.56,18.33-5.84,2.41Z"/><path class="cls-1" d="M362.41,76.1c-2,.48-4.06.6-6.1.34-1.87-.24-3.68-.85-5.31-1.81-1.6-.93-3-2.19-4.1-3.68-2.29-3.22-3.21-7.21-2.57-11.11.33-1.83,1.04-3.57,2.07-5.12,1.06-1.58,2.42-2.94,4-4,3.68-2.35,8.08-3.31,12.41-2.72,2.03.32,3.96,1.12,5.63,2.33l-3.15,4.67c-1.13-.75-2.39-1.28-3.72-1.54-1.31-.22-2.65-.18-3.94.13-1.22.26-2.39.74-3.44,1.41-.95.63-1.76,1.45-2.38,2.41-.61.95-1.01,2.02-1.18,3.13-.18,1.21-.12,2.44.18,3.63.26,1.18.75,2.3,1.43,3.3.65.93,1.48,1.72,2.44,2.32.97.6,2.06.99,3.19,1.14,1.22.16,2.46.08,3.66-.21,1.23-.27,2.4-.75,3.47-1.42,1.15-.73,2.15-1.68,2.94-2.8l4.58,3.66c-1.27,1.49-2.81,2.75-4.52,3.71-1.74,1.02-3.63,1.77-5.59,2.23ZM366.63,70.68l-2.34-10.07,5.7-1.32,2.52,10.87-5.88.52Z"/><path class="cls-1" d="M384.62,66.87l15-1.19.4,5.09-21.34,1.69-2.17-27.46,20.83-1.65.4,5.09-14.49,1.15,1.37,17.28ZM383.25,55.62l13.27-1,.39,4.94-13.27,1.05-.39-4.99Z"/><path class="cls-1" d="M429.5,73.32c-2.02-.24-3.97-.84-5.77-1.78-1.67-.87-3.15-2.08-4.35-3.54-1.17-1.44-2.03-3.1-2.54-4.88-1.03-3.81-.52-7.88,1.43-11.31.96-1.6,2.22-2.99,3.73-4.09,1.53-1.11,3.26-1.9,5.09-2.34,1.98-.46,4.03-.56,6.05-.28,2.21.23,4.35.91,6.29,2,1.78,1.03,3.29,2.48,4.38,4.22l-4.55,3.22c-.74-1.12-1.7-2.07-2.83-2.79-1.11-.69-2.36-1.13-3.66-1.28-1.2-.16-2.43-.1-3.61.18-1.09.26-2.11.76-3,1.44-.89.7-1.63,1.58-2.16,2.58-.59,1.07-.96,2.25-1.09,3.47-.17,1.21-.11,2.44.19,3.63.28,1.09.78,2.11,1.47,3,.7.88,1.57,1.62,2.56,2.15,1.06.56,2.21.93,3.4,1.08,1.29.17,2.61.07,3.86-.32,1.28-.41,2.45-1.1,3.45-2l3.6,4.26c-1.5,1.41-3.32,2.44-5.3,3-2.16.59-4.42.72-6.64.38Z"/><path class="cls-1" d="M456.78,79.17c-1.99-.56-3.86-1.49-5.52-2.72-1.53-1.14-2.81-2.57-3.78-4.21-.95-1.61-1.55-3.39-1.77-5.24-.23-1.93-.06-3.89.51-5.75.52-1.87,1.43-3.61,2.66-5.11,1.19-1.43,2.66-2.61,4.32-3.45,1.71-.85,3.57-1.37,5.47-1.52,2.04-.15,4.1.08,6.06.67,1.98.56,3.84,1.48,5.48,2.71,1.53,1.14,2.82,2.57,3.79,4.22,2.91,5.14,2.36,11.55-1.4,16.11-1.19,1.43-2.65,2.61-4.31,3.45-1.69.84-3.53,1.35-5.42,1.5-2.05.17-4.12-.06-6.09-.66ZM458.27,74c1.12.33,2.29.45,3.45.35,1.11-.12,2.18-.46,3.15-1,.98-.55,1.85-1.29,2.54-2.17,1.48-1.97,2.19-4.41,2-6.86-.12-1.12-.46-2.2-1-3.19-.53-.97-1.26-1.83-2.13-2.51-.93-.71-1.99-1.24-3.12-1.56-1.12-.34-2.29-.47-3.46-.36-1.1.11-2.17.45-3.14,1-.99.54-1.86,1.27-2.55,2.16-1.48,1.96-2.19,4.4-2,6.85.11,1.12.45,2.21,1,3.2.52.98,1.25,1.84,2.13,2.51.93.72,1.99,1.26,3.13,1.58Z"/><path class="cls-1" d="M486.1,90.47c-3.53-1.71-5.82-4.04-6.86-7-1.04-2.96-.68-6.24,1.08-9.83l6.68-13.81,5.76,2.79-6.62,13.65c-1.14,2.36-1.47,4.29-1,5.8,1.3,3.22,4.82,4.95,8.17,4,1.48-.57,2.79-2.04,3.93-4.39l6.65-13.68,5.68,2.76-6.72,13.86c-1.76,3.63-4.09,5.94-7,6.94-2.91,1-6.16.64-9.75-1.09Z"/><path class="cls-1" d="M502.53,98.42l15.88-22.42,4.32,3,1.89,25.59-2.1-1.49,11.48-16.16,5.16,3.65-15.88,22.46-4.28-3.05-2-25.59,2.09,1.48-11.43,16.17-5.13-3.64Z"/><path class="cls-1" d="M532,121.14l15.38-16.14-6.38-6.12,3.58-3.75,17.42,16.62-3.58,3.76-6.42-6.11-15.4,16.16-4.6-4.42Z"/><path class="cls-1" d="M549.08,139.08l8.73-7.08-2.07,3.56,8-22.12,4.28,5.28-6.13,17-2.46-3,17.89-2.45,4,4.87-23.32,3.16,3.89-1.33-8.73,7.08-4.08-4.97Z"/><path class="cls-1" d="M261.53,414.43l-2-1.81,12.68-14.1,9.95,9-1.57,1.75-7.94-7.14-11.12,12.3ZM268.02,406.82l7.27,6.54-1.56,1.74-7.27-6.55,1.56-1.73Z"/><path class="cls-1" d="M281.43,431c-1.12-.79-2.09-1.79-2.84-2.94-.7-1.08-1.17-2.28-1.4-3.54-.22-1.24-.2-2.5.08-3.73.3-1.29.85-2.51,1.64-3.57.76-1.07,1.74-1.98,2.86-2.67,1.07-.65,2.27-1.08,3.51-1.26,1.26-.18,2.55-.11,3.79.21,2.67.73,4.99,2.39,6.53,4.69.69,1.07,1.17,2.27,1.4,3.52.23,1.24.2,2.51-.09,3.73-.64,2.6-2.27,4.85-4.53,6.28-1.07.65-2.27,1.08-3.51,1.26-1.26.18-2.55.1-3.78-.22-1.32-.35-2.56-.95-3.66-1.76ZM282.84,429c.8.59,1.71,1.02,2.68,1.26.91.23,1.85.27,2.78.12.93-.16,1.81-.5,2.61-1,1.69-1.08,2.9-2.77,3.39-4.71.22-.91.25-1.86.1-2.78-.15-.93-.49-1.81-1-2.6-1.11-1.68-2.8-2.9-4.75-3.42-1.84-.46-3.79-.16-5.41.83-.84.52-1.57,1.2-2.15,2-.58.8-1.01,1.71-1.24,2.67-.22.91-.25,1.86-.09,2.79.15.93.49,1.82,1,2.62.54.87,1.25,1.62,2.08,2.22Z"/><path class="cls-1" d="M295.92,440.43l9.26-16.55,6.46,3.61c1.29.67,2.43,1.62,3.32,2.77.74.95,1.18,2.1,1.26,3.3.04,1.25-.27,2.49-.91,3.56-.58,1.11-1.46,2.02-2.55,2.63-1.07.55-2.27.78-3.47.65-1.45-.17-2.84-.65-4.1-1.39l-5.19-2.89,1.67-.49-3.43,6.12-2.32-1.32ZM301.58,435.87l-.42-1.76,5.09,2.85c1.18.77,2.6,1.11,4,.94,1.18-.25,2.18-1.02,2.71-2.1.64-1.01.78-2.27.36-3.4-.6-1.27-1.63-2.29-2.9-2.89l-5.08-2.84,1.73-.59-5.49,9.79ZM306.98,446.62l-.84-8.36,2.53,1.42.89,8.38-2.58-1.44Z"/><path class="cls-1" d="M333,458.29c-1.3-.46-2.49-1.16-3.53-2.06-.96-.84-1.74-1.86-2.31-3-1.66-3.63-.99-7.91,1.71-10.85,1.75-1.87,4.18-2.95,6.74-3,2.77-.03,5.45.94,7.55,2.74.96.84,1.74,1.86,2.31,3,.55,1.13.87,2.36.93,3.62.08,2.67-.87,5.28-2.66,7.27-.84.92-1.86,1.66-3,2.17-1.17.51-2.43.79-3.7.81-1.38.03-2.75-.21-4.04-.7ZM333.83,456.03c.93.35,1.92.52,2.92.49,1.91-.05,3.72-.88,5-2.29,1.34-1.49,2.05-3.44,2-5.44-.04-.94-.26-1.86-.65-2.71-.4-.85-.96-1.61-1.66-2.23-1.52-1.32-3.48-2.04-5.5-2-.94.03-1.87.24-2.73.63-.85.39-1.62.95-2.25,1.65-1.34,1.49-2.06,3.44-2,5.44.03.94.26,1.86.67,2.71.4.85.97,1.61,1.67,2.24.75.65,1.61,1.15,2.54,1.48v.03Z"/><path class="cls-1" d="M354.23,464.59l-3.59-20.4,2.84.7,3.28,18.82-1.63-.4,11.66-15.16,2.63.65-12.59,16.43-2.6-.64Z"/><path class="cls-1" d="M373.25,466.12l10.94,1.55-.33,2.33-13.62-1.93,2.66-18.78,13.25,1.89-.33,2.33-10.57-1.51-2,14.12ZM374.19,457.74l9.66,1.37-.32,2.28-9.66-1.39.32-2.26Z"/><path class="cls-1" d="M391.23,470.64l.73-18.95,7.4.29c1.45.02,2.89.34,4.21.95,1.09.51,2.01,1.33,2.62,2.37,1.18,2.24,1.08,4.94-.27,7.08-.7.98-1.67,1.73-2.79,2.16-1.37.5-2.83.71-4.28.62l-5.9-.23,1.26-1.2-.27,7-2.71-.09ZM394.23,464.01l-1.23-1.38,5.82.23c1.41.14,2.82-.21,4-1,1.8-1.61,1.96-4.38.35-6.18-.03-.04-.07-.08-.11-.12-1.11-.86-2.49-1.3-3.9-1.26l-5.82-.22,1.27-1.31-.38,11.24ZM403.93,471.13l-4.55-7.06,2.9.11,4.6,7.06-2.95-.11Z"/><path class="cls-1" d="M421.9,470.62l-.2-1.84,6.91-8.21c.53-.57.99-1.2,1.39-1.87.25-.45.43-.94.53-1.45.05-.41.05-.83,0-1.24-.05-.89-.52-1.69-1.26-2.18-.94-.52-2.02-.71-3.08-.53-.93.09-1.84.35-2.67.79-.78.43-1.44,1.03-1.94,1.77l-2-1.4c.67-1.02,1.59-1.86,2.68-2.42,1.22-.63,2.55-1.03,3.92-1.16,1.17-.15,2.36-.05,3.49.28,1.97.54,3.38,2.26,3.53,4.3.06.61.05,1.22-.05,1.83-.13.7-.37,1.38-.72,2-.49.87-1.06,1.68-1.71,2.44l-6.16,7.27-.75-1,11.39-1.2.25,2.34-13.55,1.48Z"/><path class="cls-1" d="M446.52,467.47c-1.29.26-2.62.3-3.93.13-1.17-.12-2.31-.48-3.34-1.06l.81-2.34c.82.51,1.74.85,2.7,1,1.08.18,2.19.16,3.27-.06,1.18-.15,2.27-.69,3.1-1.54.63-.72.88-1.7.67-2.64-.19-1.43-1.38-2.51-2.82-2.56-1.16-.09-2.33,0-3.47.25l-4.23.82-.91-9.92,10.51-2,.45,2.31-9.52,1.85,1.13-1.57.72,7.83-1.63-1,3.58-.69c1.52-.35,3.1-.4,4.64-.16,1.09.19,2.09.71,2.86,1.5.69.78,1.15,1.74,1.33,2.77.21,1.02.14,2.08-.2,3.06-.38,1.02-1.05,1.9-1.92,2.55-1.14.78-2.44,1.28-3.8,1.47Z"/><path class="cls-1" d="M473.82,460.08l-2.35-6.87,1.13,1.39-12.05-10,2.74-.94,10.15,8.47-1.49.51,2.85-12.92,2.53-.87-3.33,15.28v-1.79l2.36,6.87-2.54.87Z"/><path class="cls-1" d="M490,451.38l10-4.58,1,2.15-12.53,5.7-7.85-17.27,12.18-5.54,1,2.15-9.72,4.42,5.92,12.97ZM486.29,443.81l8.88-4,.95,2.09-8.88,4-.95-2.09Z"/><path class="cls-1" d="M505,447l-2.14-20.71,2.32-1.35,17,12-2.45,1.43-15.42-11.2.94-.55,2.17,18.93-2.42,1.45ZM505.77,441.06l-.46-2.24,9.22-5.38,1.77,1.48-10.53,6.14Z"/><path class="cls-1" d="M527,433.6l-11.2-15.27,6-4.39c1.15-.89,2.48-1.53,3.89-1.89,1.17-.28,2.4-.2,3.53.23,1.16.47,2.16,1.27,2.87,2.3.77.98,1.23,2.17,1.33,3.41.07,1.2-.22,2.39-.84,3.42-.76,1.25-1.79,2.33-3,3.16l-4.75,3.5.24-1.73,4.16,5.65-2.23,1.61ZM525.18,426.6l-1.77-.35,4.69-3.45c1.19-.75,2.08-1.9,2.51-3.24.27-1.18-.02-2.41-.79-3.34-.65-1.01-1.74-1.65-2.94-1.73-1.41.02-2.76.53-3.83,1.44l-4.7,3.45.18-1.81,6.65,9.03ZM537.18,426.12l-8-2.68,2.33-1.72,8,2.65-2.33,1.75Z"/><path class="cls-1" d="M549.23,416.22c-1.04.95-2.23,1.72-3.52,2.28-1.08.52-2.26.79-3.46.81l-.67-2.24c1.07-.03,2.12-.27,3.1-.68,1.1-.44,2.12-1.08,3-1.88.7-.59,1.28-1.29,1.74-2.08.31-.54.46-1.16.43-1.79-.05-.54-.28-1.04-.65-1.44-.38-.45-.93-.72-1.52-.74-.65,0-1.29.13-1.88.39-.71.29-1.41.62-2.08,1-.73.41-1.48.8-2.25,1.17-.73.35-1.5.63-2.29.81-.74.18-1.51.18-2.25,0-.83-.26-1.56-.75-2.12-1.42-.64-.71-1.07-1.58-1.23-2.52-.16-1.04,0-2.11.44-3.06.61-1.27,1.48-2.4,2.55-3.31.82-.74,1.74-1.37,2.72-1.87.91-.5,1.9-.83,2.93-1l.79,2.21c-.94.13-1.85.42-2.7.85-.8.4-1.54.9-2.2,1.49-.68.58-1.25,1.28-1.68,2.06-.3.56-.44,1.19-.39,1.82.07.54.3,1.04.67,1.44.38.46.94.74,1.54.76.64,0,1.28-.14,1.86-.4.66-.28,1.36-.63,2.09-1s1.48-.79,2.25-1.17c.72-.36,1.49-.64,2.28-.82.74-.18,1.5-.18,2.24,0,.82.25,1.55.73,2.09,1.39.63.7,1.05,1.57,1.21,2.5.15,1.06-.02,2.14-.48,3.1-.6,1.28-1.48,2.42-2.56,3.34Z"/></g></g><path class="cls-1" d="M 777.28 238.609 C 777.28 245.262 772.05 250.48 765.258 250.48 C 758.465 250.48 753.171 245.262 753.171 238.609 C 753.171 231.957 758.541 226.879 765.258 226.879 C 771.973 226.879 777.28 232.097 777.28 238.609 Z M 756.18 238.609 C 756.18 243.827 760.039 247.979 765.333 247.979 C 770.627 247.979 774.272 243.827 774.272 238.686 C 774.272 233.544 770.488 229.24 765.258 229.24 C 760.026 229.24 756.167 233.455 756.167 238.609 L 756.18 238.609 Z M 763.403 244.767 L 760.687 244.767 L 760.687 233.036 C 761.766 232.821 763.264 232.68 765.194 232.68 C 767.415 232.68 768.419 233.036 769.269 233.544 C 769.917 234.039 770.411 234.978 770.411 236.121 C 770.411 237.404 769.409 238.406 767.974 238.838 L 767.974 238.978 C 769.117 239.409 769.764 240.26 770.119 241.835 C 770.475 243.625 770.691 244.335 770.983 244.767 L 768.05 244.767 C 767.695 244.335 767.479 243.269 767.123 241.91 C 766.907 240.628 766.197 240.057 764.699 240.057 L 763.403 240.057 L 763.403 244.78 L 763.403 244.767 Z M 763.467 238.115 L 764.75 238.115 C 766.26 238.115 767.466 237.607 767.466 236.4 C 767.466 235.321 766.679 234.611 764.965 234.611 C 764.254 234.611 763.746 234.686 763.467 234.75 L 763.467 238.115 Z" style=""/></svg>